<?xml version="1.0" encoding="utf-8"?>
<!-- Generator: Adobe Illustrator 25.1.0, SVG Export Plug-In . SVG Version: 6.00 Build 0)  -->
<svg version="1.1" id="Layer_1" xmlns="http://www.w3.org/2000/svg" xmlns:xlink="http://www.w3.org/1999/xlink" x="0px" y="0px"
	 viewBox="0 0 96 96" style="enable-background:new 0 0 96 96;" xml:space="preserve">
<style type="text/css">
	.st0{fill:none;stroke:#010101;stroke-width:2;stroke-linecap:round;stroke-linejoin:round;stroke-miterlimit:10;}
</style>
<g>
	<path class="st0" d="M74.48,34.59c0-15.56-13.57-28.14-29.46-26.15C33.43,9.76,23.83,19.03,21.85,30.62
		c-1.32,8.61,1.66,16.88,6.95,22.51c3.97,3.97,5.96,9.27,5.96,14.9l0,0h26.48l0,0c0-5.3,1.99-10.92,5.63-14.57
		C71.51,48.17,74.48,41.88,74.48,34.59z"/>
	<line class="st0" x1="61.24" y1="77.63" x2="34.76" y2="77.63"/>
	<path class="st0" d="M57.93,80.94c0,5.63-4.3,9.93-9.93,9.93s-9.93-4.3-9.93-9.93"/>
	<line class="st0" x1="8.27" y1="37.9" x2="1.65" y2="37.9"/>
	<line class="st0" x1="19.86" y1="66.04" x2="15.23" y2="70.68"/>
	<line class="st0" x1="76.14" y1="66.04" x2="80.77" y2="70.68"/>
	<line class="st0" x1="87.73" y1="37.9" x2="94.35" y2="37.9"/>
	<line class="st0" x1="76.14" y1="9.76" x2="80.77" y2="5.13"/>
	<line class="st0" x1="19.86" y1="9.76" x2="15.23" y2="5.13"/>
</g>
</svg>
