<?xml version="1.0" encoding="utf-8"?>
<!-- Generator: Adobe Illustrator 25.1.0, SVG Export Plug-In . SVG Version: 6.00 Build 0)  -->
<svg version="1.1" id="Layer_1" xmlns="http://www.w3.org/2000/svg" xmlns:xlink="http://www.w3.org/1999/xlink" x="0px" y="0px"
	 viewBox="0 0 96 96" style="enable-background:new 0 0 96 96;" xml:space="preserve">
<style type="text/css">
	.st0{fill:#010101;}
</style>
<path class="st0" d="M42.29,72.49c-0.04-1.52-0.09-2.7-0.09-3.43c0-4.52,0.65-8.43,1.91-11.7c0.96-2.48,2.43-4.96,4.52-7.48
	c1.52-1.83,4.3-4.48,8.26-8c4-3.52,6.56-6.35,7.78-8.43s1.78-4.35,1.78-6.83c0-4.48-1.74-8.39-5.26-11.83
	c-3.48-3.39-7.78-5.09-12.87-5.09c-4.91,0-9,1.57-12.26,4.61c-3.3,3.09-5.43,7.87-6.48,14.43l-11.83-1.43
	c1.09-8.74,4.22-15.43,9.52-20.09c5.26-4.65,12.22-6.96,20.87-6.96c9.17,0,16.48,2.48,21.96,7.48c5.48,5,8.17,11,8.17,18.09
	c0,4.09-0.96,7.87-2.87,11.3s-5.65,7.65-11.26,12.61c-3.74,3.35-6.22,5.78-7.35,7.35c-1.17,1.61-2,3.39-2.57,5.43
	c-0.57,2.04-0.87,5.39-0.96,10H42.2L42.29,72.49z M41.59,95.58V82.45h13.09v13.13H41.59z"/>
</svg>
